IKResults
version=1
nRows=24
nColumns=24
inDegrees=yes

Units are S.I. units (second, meters, Newtons, ...)
If the header above contains a line with 'inDegrees', this indicates whether rotational values are in degrees (yes) or radians (no).

endheader
time	pelvis_tilt	pelvis_list	pelvis_rotation	pelvis_tx	pelvis_ty	pelvis_tz	hip_flexion_r	hip_adduction_r	hip_rotation_r	knee_angle_r	ankle_angle_r	subtalar_angle_r	mtp_angle_r	hip_flexion_l	hip_adduction_l	hip_rotation_l	knee_angle_l	ankle_angle_l	subtalar_angle_l	mtp_angle_l	lumbar_extension	lumbar_bending	lumbar_rotation
      0.00000000	      7.01747056	      2.54944324	   -178.22658580	      0.21583798	      0.85593639	     -1.21661558	     11.41171690	     -8.26872961	    -33.22866686	    -10.29278554	      0.69142459	     11.03531932	      0.00000000	     12.60134064	    -13.50944946	    -30.86930532	    -10.11588133	      2.34628004	     15.45770029	      0.00000000	      4.99969593	      1.10461975	     -1.52113565
      0.00500000	      7.00035471	      2.56519102	   -178.25178226	      0.21591849	      0.85592556	     -1.21657244	     11.41570161	     -8.26673145	    -33.27467803	    -10.31872753	      0.75320964	     10.99573922	      0.00000000	     12.57306728	    -13.52297686	    -30.88106647	    -10.09649022	      2.33771147	     15.44729131	      0.00000000	      4.99426069	      1.13218618	     -1.47480810
      0.01000000	      6.98273241	      2.54852547	   -178.26920487	      0.21600465	      0.85591009	     -1.21656026	     11.42200557	     -8.31877956	    -33.40330911	    -10.36343640	      0.69901421	     10.89539882	      0.00000000	     12.54566545	    -13.50384535	    -30.89821305	    -10.08415473	      2.34149164	     15.44139456	      0.00000000	      4.96894308	      1.11972599	     -1.46346882
      0.01500000	      6.98039350	      2.53521898	   -178.26323162	      0.21614464	      0.85589845	     -1.21656093	     11.42148618	     -8.32609687	    -33.34900333	    -10.35068889	      0.64145600	     10.92016239	      0.00000000	     12.55766879	    -13.49110736	    -30.88066790	    -10.09503862	      2.33080337	     15.45480523	      0.00000000	      4.95301876	      1.10093746	     -1.48370015
      0.02000000	      6.99369021	      2.51793569	   -178.26227170	      0.21624568	      0.85589181	     -1.21657847	     11.43170917	     -8.33389012	    -33.32150386	    -10.32312093	      0.60107583	     10.92959471	      0.00000000	     12.57282999	    -13.47087756	    -30.88745519	    -10.08416239	      2.33503492	     15.46138999	      0.00000000	      4.94015164	      1.08532209	     -1.53846662
      0.02500000	      6.98256619	      2.52176963	   -178.25400438	      0.21638350	      0.85586961	     -1.21658738	     11.43034060	     -8.33000422	    -33.32406420	    -10.32639788	      0.59356996	     10.91836083	      0.00000000	     12.57571235	    -13.47626593	    -30.88035342	    -10.08528105	      2.32234323	     15.46896269	      0.00000000	      4.94150351	      1.06637252	     -1.48844724
      0.03000000	      6.98065204	      2.52285089	   -178.26170446	      0.21648033	      0.85587081	     -1.21656744	     11.43650900	     -8.32975259	    -33.32743469	    -10.32363274	      0.59482721	     10.91523050	      0.00000000	     12.57646872	    -13.47748003	    -30.88273549	    -10.08220601	      2.32247247	     15.46808998	      0.00000000	      4.93441885	      1.06944169	     -1.48241657
      0.03500000	      6.97771423	      2.52357902	   -178.27536655	      0.21657370	      0.85586060	     -1.21654989	     11.44091012	     -8.33359853	    -33.33409714	    -10.32116950	      0.60094740	     10.90806966	      0.00000000	     12.57365638	    -13.47635315	    -30.88438679	    -10.07929829	      2.31950307	     15.46761410	      0.00000000	      4.92894991	      1.08174603	     -1.47200722
      0.04000000	      6.96877224	      2.52687450	   -178.29158147	      0.21669188	      0.85583657	     -1.21661387	     11.44756093	     -8.32790657	    -33.33910435	    -10.33573966	      0.60802706	     10.89072049	      0.00000000	     12.56131881	    -13.48420338	    -30.88411760	    -10.05304302	      2.31844152	     15.47416076	      0.00000000	      4.91655374	      1.08110662	     -1.43395793
      0.04500000	      6.96421552	      2.51246817	   -178.29423995	      0.21677960	      0.85578373	     -1.21660158	     11.44161533	     -8.34164410	    -33.32803126	    -10.32042992	      0.59701834	     10.89577934	      0.00000000	     12.57149624	    -13.47294418	    -30.88663422	    -10.10092853	      2.31370038	     15.46746922	      0.00000000	      4.89575077	      1.04964545	     -1.42061829
      0.05000000	      6.95384306	      2.49771815	   -178.31775263	      0.21688402	      0.85577287	     -1.21660656	     11.44322018	     -8.35488797	    -33.30771264	    -10.31859917	      0.56673127	     10.91113542	      0.00000000	     12.55183842	    -13.45671898	    -30.91860985	    -10.07573401	      2.32306703	     15.47006900	      0.00000000	      4.87911861	      1.03942166	     -1.37717926
      0.05500000	      6.95264107	      2.49830303	   -178.32573201	      0.21699861	      0.85577697	     -1.21662162	     11.45037790	     -8.35495916	    -33.31462156	    -10.31362554	      0.57363996	     10.90690902	      0.00000000	     12.55418450	    -13.45775699	    -30.91831946	    -10.06995802	      2.32065947	     15.47074203	      0.00000000	      4.86681993	      1.04179942	     -1.37576549
      0.06000000	      6.94932247	      2.50101975	   -178.32581628	      0.21708662	      0.85578668	     -1.21662632	     11.45278328	     -8.35112461	    -33.31583316	    -10.31535441	      0.57594428	     10.90642998	      0.00000000	     12.55797806	    -13.46205421	    -30.91741178	    -10.06348859	      2.31775663	     15.47107722	      0.00000000	      4.85663197	      1.03740284	     -1.37340958
      0.06500000	      6.94561019	      2.50306223	   -178.32714496	      0.21720679	      0.85579714	     -1.21668907	     11.45630484	     -8.34399337	    -33.31824379	    -10.31574078	      0.57751322	     10.90598637	      0.00000000	     12.56210026	    -13.46649079	    -30.91690041	    -10.06070765	      2.31727965	     15.47083552	      0.00000000	      4.84415538	      1.02608897	     -1.37256666
      0.07000000	      6.88979127	      2.51243301	   -178.30739324	      0.21729308	      0.85583125	     -1.21675558	     11.38121346	     -8.32328928	    -33.32925428	    -10.28008605	      0.59029752	     10.92350073	      0.00000000	     12.52164191	    -13.48473142	    -30.90332839	    -10.07807499	      2.33115351	     15.47769071	      0.00000000	      4.77600308	      1.02723171	     -1.40594439
      0.07500000	      6.88951592	      2.51048925	   -178.30625448	      0.21742226	      0.85580689	     -1.21683355	     11.38761026	     -8.32142719	    -33.32866117	    -10.27816614	      0.58665422	     10.92516422	      0.00000000	     12.52112853	    -13.49067671	    -30.90043114	    -10.08186124	      2.33384172	     15.48251916	      0.00000000	      4.76987817	      1.01537229	     -1.40613090
      0.08000000	      6.88353742	      2.49912155	   -178.31224487	      0.21753480	      0.85580468	     -1.21685477	     11.39060375	     -8.33247808	    -33.32347499	    -10.27606855	      0.57853945	     10.93070718	      0.00000000	     12.53158250	    -13.48873446	    -30.88775109	    -10.11807122	      2.31682350	     15.49652769	      0.00000000	      4.75950732	      1.00598681	     -1.39522648
      0.08500000	      6.88133930	      2.51867605	   -178.32362793	      0.21763279	      0.85579882	     -1.21685843	     11.40371985	     -8.31694235	    -33.35000939	    -10.29236587	      0.62324450	     10.90562029	      0.00000000	     12.53237536	    -13.50216648	    -30.89528872	    -10.07552296	      2.27442404	     15.48718991	      0.00000000	      4.75422032	      1.02871054	     -1.37856476
      0.09000000	      6.87095900	      2.53148780	   -178.34862606	      0.21769836	      0.85580859	     -1.21686487	     11.41119174	     -8.30555941	    -33.35669449	    -10.31518981	      0.62631818	     10.90351483	      0.00000000	     12.51403440	    -13.51928930	    -30.90186055	    -10.06618193	      2.24962015	     15.46906835	      0.00000000	      4.74412924	      1.05359787	     -1.34920335
      0.09500000	      6.86831573	      2.53087627	   -178.34328943	      0.21782346	      0.85578839	     -1.21695086	     11.41502238	     -8.29794679	    -33.35155668	    -10.31377665	      0.62191531	     10.90872468	      0.00000000	     12.52028463	    -13.52482373	    -30.89918060	    -10.06004105	      2.24972420	     15.46961994	      0.00000000	      4.73456410	      1.03541189	     -1.35049132
      0.10000000	      6.87249325	      2.51170140	   -178.32252994	      0.21791212	      0.85575387	     -1.21700941	     11.40211530	     -8.30770442	    -33.31541879	    -10.26912607	      0.60885078	     10.93726641	      0.00000000	     12.53198552	    -13.51170773	    -30.87991225	    -10.08027401	      2.27529349	     15.50365473	      0.00000000	      4.73353149	      0.99419448	     -1.37537088
      0.10500000	      6.84884954	      2.46607927	   -178.29807542	      0.21800612	      0.85569976	     -1.21707979	     11.36915858	     -8.34593994	    -33.28591698	    -10.23264874	      0.71176999	     10.90657634	      0.00000000	     12.51436057	    -13.47649274	    -30.93915249	    -10.08193164	      2.33687784	     15.66869314	      0.00000000	      4.69868791	      0.92018717	     -1.39821315
      0.11000000	      6.84831535	      2.46746548	   -178.30188836	      0.21808023	      0.85571493	     -1.21710330	     11.37404829	     -8.34275081	    -33.28469067	    -10.23130865	      0.70886381	     10.90849272	      0.00000000	     12.51673764	    -13.48150363	    -30.93871648	    -10.08198814	      2.33172059	     15.67237983	      0.00000000	      4.68925130	      0.91943611	     -1.39744777
      0.11500000	      6.84799304	      2.53311831	   -178.33528551	      0.21816364	      0.85579852	     -1.21714771	     11.39545119	     -8.27479864	    -33.31743733	    -10.26522887	      0.61258255	     10.93729351	      0.00000000	     12.51154326	    -13.54795433	    -30.95056089	    -10.03067564	      2.22626681	     15.63612824	      0.00000000	      4.70455111	      0.99825834	     -1.33552470
